<svg width="260" height="106" viewBox="0 0 260 106" fill="none" xmlns="http://www.w3.org/2000/svg">
<rect width="14.1245" height="14.1245" transform="matrix(-0.717792 0.696258 -0.717792 -0.696258 259.243 9.83429)" fill="#D41D24"/>
<rect width="14.1245" height="14.1245" transform="matrix(-0.717792 0.696258 -0.717792 -0.696258 192.332 9.83429)" fill="#D41D24"/>
<rect width="14.1245" height="14.1245" transform="matrix(-0.717792 0.696258 -0.717792 -0.696258 127.812 9.83429)" fill="#D41D24"/>
<rect width="14.1245" height="14.1245" transform="matrix(-0.717792 0.696258 -0.717792 -0.696258 60.9009 9.83429)" fill="#D41D24"/>
<rect width="14.1245" height="14.1245" transform="matrix(-0.717792 0.696258 -0.717792 -0.696258 259.243 95.9968)" fill="#D41D24"/>
<rect width="14.1245" height="14.1245" transform="matrix(-0.717792 0.696258 -0.717792 -0.696258 192.332 95.9968)" fill="#D41D24"/>
<rect width="14.1245" height="14.1245" transform="matrix(-0.717792 0.696258 -0.717792 -0.696258 127.812 95.9968)" fill="#D41D24"/>
<rect width="14.1245" height="14.1245" transform="matrix(-0.717792 0.696258 -0.717792 -0.696258 60.9009 95.9968)" fill="#D41D24"/>
<rect width="14.1245" height="14.1245" transform="matrix(-0.717792 0.696258 -0.717792 -0.696258 218.618 51.9554)" fill="#D41D24"/>
<rect width="14.1245" height="14.1245" transform="matrix(-0.717792 0.696258 -0.717792 -0.696258 151.708 51.9554)" fill="#D41D24"/>
<rect width="14.1245" height="14.1245" transform="matrix(-0.717792 0.696258 -0.717792 -0.696258 87.1873 51.9554)" fill="#D41D24"/>
<rect width="14.1245" height="14.1245" transform="matrix(-0.717792 0.696258 -0.717792 -0.696258 20.2766 51.9554)" fill="#D41D24"/>
</svg>
