<svg width="106" height="260" viewBox="0 0 106 260" fill="none" xmlns="http://www.w3.org/2000/svg">
<rect width="14.1245" height="14.1245" transform="matrix(0.696258 0.717792 -0.696258 0.717792 9.83435 0)" fill="#D41D24"/>
<rect width="14.1245" height="14.1245" transform="matrix(0.696258 0.717792 -0.696258 0.717792 9.83435 66.9104)" fill="#D41D24"/>
<rect width="14.1245" height="14.1245" transform="matrix(0.696258 0.717792 -0.696258 0.717792 9.83435 131.431)" fill="#D41D24"/>
<rect width="14.1245" height="14.1245" transform="matrix(0.696258 0.717792 -0.696258 0.717792 9.83435 198.342)" fill="#D41D24"/>
<rect width="14.1245" height="14.1245" transform="matrix(0.696258 0.717792 -0.696258 0.717792 95.9969 0)" fill="#D41D24"/>
<rect width="14.1245" height="14.1245" transform="matrix(0.696258 0.717792 -0.696258 0.717792 95.9969 66.9104)" fill="#D41D24"/>
<rect width="14.1245" height="14.1245" transform="matrix(0.696258 0.717792 -0.696258 0.717792 95.9969 131.431)" fill="#D41D24"/>
<rect width="14.1245" height="14.1245" transform="matrix(0.696258 0.717792 -0.696258 0.717792 95.9969 198.342)" fill="#D41D24"/>
<rect width="14.1245" height="14.1245" transform="matrix(0.696258 0.717792 -0.696258 0.717792 51.9554 40.6241)" fill="#D41D24"/>
<rect width="14.1245" height="14.1245" transform="matrix(0.696258 0.717792 -0.696258 0.717792 51.9554 107.535)" fill="#D41D24"/>
<rect width="14.1245" height="14.1245" transform="matrix(0.696258 0.717792 -0.696258 0.717792 51.9554 172.055)" fill="#D41D24"/>
<rect width="14.1245" height="14.1245" transform="matrix(0.696258 0.717792 -0.696258 0.717792 51.9554 238.966)" fill="#D41D24"/>
</svg>
